<svg width="48" height="48" viewBox="0 0 48 48" xmlns="http://www.w3.org/2000/svg" role="img" aria-label="SmartSales">
  <defs>
    <linearGradient id="ss-tile" x1="0" y1="0" x2="48" y2="48" gradientUnits="userSpaceOnUse">
      <stop offset="0" stop-color="#2b1c54"/>
      <stop offset="1" stop-color="#0b1326"/>
    </linearGradient>
    <linearGradient id="ss-bars" x1="0" y1="48" x2="40" y2="4" gradientUnits="userSpaceOnUse">
      <stop offset="0" stop-color="#a78bfa"/>
      <stop offset="1" stop-color="#4edea3"/>
    </linearGradient>
    <radialGradient id="ss-glow" cx="0.5" cy="0.5" r="0.5">
      <stop offset="0" stop-color="#4edea3" stop-opacity="0.55"/>
      <stop offset="1" stop-color="#4edea3" stop-opacity="0"/>
    </radialGradient>
  </defs>
  <rect x="0.75" y="0.75" width="46.5" height="46.5" rx="12" fill="url(#ss-tile)"/>
  <rect x="0.75" y="0.75" width="46.5" height="46.5" rx="12" fill="none" stroke="rgba(255,255,255,0.10)" stroke-width="1.5"/>
  <path d="M9 35 H39" stroke="rgba(206,189,255,0.22)" stroke-width="1.6" stroke-linecap="round"/>
  <rect x="11" y="24" width="6" height="11" rx="2" fill="url(#ss-bars)" opacity="0.55"/>
  <rect x="21" y="17" width="6" height="18" rx="2" fill="url(#ss-bars)" opacity="0.78"/>
  <rect x="31" y="10" width="6" height="25" rx="2" fill="url(#ss-bars)"/>
  <circle cx="34" cy="9" r="8" fill="url(#ss-glow)"/>
  <path d="M34 4 C34.6 7.8 35.2 8.4 39 9 C35.2 9.6 34.6 10.2 34 14 C33.4 10.2 32.8 9.6 29 9 C32.8 8.4 33.4 7.8 34 4 Z" fill="#eafff5"/>
</svg>
